#!OML:ASF E:\Mandelcareful walks\Project 1\Capture day 1\Session 1\Subject1.ASF
:FULLY-SPECIFIED
:DEGREES
281
root -9.66217 15.3259 5.4686 193.035 60.7567 188.622
lowerback 30.9103 4.9698 -5.79361
upperback 10.5754 6.11098 -3.17494
thorax -4.97411 3.62265 -2.35985
lowerneck -24.4626 9.25683 6.05656
upperneck 24.6535 17.5826 -17.3126
head 15.0554 6.17701 -4.26862
rclavicle -2.54444e-014 4.05521e-014
rhumerus 22.8251 29.3803 -70.8717
rradius 56.6694
rwrist -16.7059
rhand -17.8864 -26.7385
rfingers 7.12502
rthumb 8.37994 -56.5523
lclavicle -2.54444e-014 4.05521e-014
lhumerus -14.7805 13.9649 69.8717
lradius 23.2146
lwrist 4.68801
lhand -25.598 -14.3665
lfingers 7.12502
lthumb 0.934052 15.6112
rfemur -33.0746 -26.6006 17.9152
rtibia 83.6711
rfoot -10.4482 -7.57794
rtoes -13.5014
lfemur -41.3523 2.00603 -21.453
ltibia 63.5591
lfoot -29.2203 10.7905
ltoes 16.559
282
root -9.61991 15.3157 5.44471 192.389 59.7329 187.747
lowerback 31.1682 5.03647 -5.49144
upperback 10.4248 6.2531 -3.5365
thorax -5.19203 3.71465 -3.01937
lowerneck -24.837 9.12109 6.12514
upperneck 25.2608 17.3136 -16.8
head 15.2944 6.0786 -4.14694
rclavicle 1.43125e-013 -1.04163e-013
rhumerus 22.6509 28.4983 -71.7325
rradius 57.1326
rwrist -16.6288
rhand -18.2784 -26.821
rfingers 7.12502
rthumb 8.00161 -56.6495
lclavicle 1.43125e-013 -1.04163e-013
lhumerus -14.7314 13.5769 69.8149
lradius 23.4468
lwrist 5.73376
lhand -26.1205 -13.7743
lfingers 7.12502
lthumb 0.429359 16.205
rfemur -35.7115 -26.1787 18.5689
rtibia 83.0956
rfoot -11.9898 -8.00646
rtoes -14.4295
lfemur -41.3734 0.933502 -21.8102
ltibia 63.5128
lfoot -29.1959 10.7048
ltoes 16.3466
283
root -9.5639 15.3002 5.42561 191.43 58.2007 186.592
lowerback 31.5006 4.93554 -5.26717
upperback 10.3284 6.18051 -3.75039
thorax -5.4064 3.70214 -3.40135
lowerneck -24.9428 8.99717 5.91462
upperneck 25.5537 17.2013 -16.4995
head 15.366 6.03344 -4.02069
rclavicle 9.62118e-014 -3.65764e-014
rhumerus 22.4476 27.7956 -72.4538
rradius 57.4471
rwrist -16.3794
rhand -18.0397 -26.9381
rfingers 7.12502
rthumb 8.23199 -56.7577
lclavicle 9.62118e-014 -3.65764e-014
lhumerus -14.8418 12.804 70.0601
lradius 23.9825
lwrist 7.31692
lhand -26.6378 -13.1919
lfingers 7.12502
lthumb -0.0703082 16.7879
rfemur -37.7922 -25.9329 18.9839
rtibia 82.0953
rfoot -13.7755 -8.00007
rtoes -11.4056
lfemur -41.2653 -0.293159 -22.2754
ltibia 63.4015
lfoot -29.0631 10.3569
ltoes 16.2231
284
root -9.47532 15.3077 5.42312 190.464 56.4155 185.786
lowerback 32.3822 4.93169 -5.48317
upperback 10.0043 6.10871 -3.78004
thorax -5.56141 3.71176 -3.16021
lowerneck -24.0538 9.00795 6.69821
upperneck 24.6552 17.1542 -17.5906
head 15.0036 6.07152 -4.6029
rclavicle 7.4743e-014 -4.29375e-014
rhumerus 22.3802 27.0879 -73.1096
rradius 57.6118
rwrist -16.1411
rhand -18.1081 -26.8386
rfingers 7.12502
rthumb 8.16598 -56.6608
lclavicle 7.4743e-014 -4.29375e-014
lhumerus -14.8473 12.4054 70.5221
lradius 24.5682
lwrist 8.42378
lhand -27.1104 -12.8635
lfingers 7.12502
lthumb -0.526677 17.1156
rfemur -39.1931 -25.349 19.5629
rtibia 80.5584
rfoot -15.0455 -8.53011
rtoes -8.70119
lfemur -40.6271 -1.16825 -22.4575
ltibia 63.2847
lfoot -29.0047 9.67128
ltoes 15.4304
285
root -9.3467 15.3495 5.43604 189.704 54.2997 185.321
lowerback 32.7838 4.98002 -5.99062
upperback 10.0917 6.07534 -3.3968
thorax -5.67873 3.70539 -2.51667
lowerneck -24.2838 9.02978 6.45271
upperneck 24.7727 17.3865 -17.6582
head 15.1324 6.12925 -4.53094
rclavicle -4.37326e-014 6.12257e-014
rhumerus 22.2683 26.5283 -73.6545
rradius 57.6728
rwrist -15.89
rhand -17.7686 -26.4219
rfingers 7.12502
rthumb 8.49361 -56.2311
lclavicle -4.37326e-014 6.12257e-014
lhumerus -14.919 12.3355 71.1278
lradius 25.1544
lwrist 9.0847
lhand -27.1154 -12.9479
lfingers 7.12502
lthumb -0.531578 17.0312
rfemur -40.2712 -24.3999 20.2865
rtibia 78.6686
rfoot -16.2176 -9.18851
rtoes -8.58048
lfemur -39.6864 -1.82194 -22.2588
ltibia 63.0658
lfoot -28.9127 8.54814
ltoes 14.2775
286
root -9.2776 15.331 5.42999 189.462 52.2153 184.811
lowerback 32.9001 4.72674 -5.53442
upperback 10.0495 5.92174 -3.43031
thorax -5.74198 3.65258 -2.74762
lowerneck -24.8776 8.96377 5.93451
upperneck 25.2722 17.4519 -17.1544
head 15.3689 6.11012 -4.22133
rclavicle 9.22361e-014 -1.06549e-013
rhumerus 22.1531 25.9063 -73.9684
rradius 57.7131
rwrist -15.837
rhand -16.8353 -26.2173
rfingers 7.12502
rthumb 9.39425 -55.988
lclavicle 9.22361e-014 -1.06549e-013
lhumerus -14.8269 11.4963 71.7588
lradius 25.8054
lwrist 10.0462
lhand -26.8304 -13.4233
lfingers 7.12502
lthumb -0.256331 16.5563
rfemur -42.4288 -23.4789 20.8177
rtibia 76.869
rfoot -16.8725 -9.01089
rtoes -11.6437
lfemur -39.9042 -2.85111 -22.3419
ltibia 63.0965
lfoot -28.5855 7.64801
ltoes 14.3531
